<?xml version="1.0" encoding="UTF-8"?>
<svg id="Layer_1" xmlns="http://www.w3.org/2000/svg" version="1.1" viewBox="0 0 47.44 47.44">
  <!-- Generator: Adobe Illustrator 29.5.1, SVG Export Plug-In . SVG Version: 2.1.0 Build 141)  -->
  <defs>
    <style>
      .st0 {
        fill: #333;
      }

      .st1 {
        fill: #4495d1;
      }
    </style>
  </defs>
  <g id="Logo">
    <path id="path21" class="st1" d="M29.6,5.02c-.91-.03-1.84.05-2.76.23-2.32.45-5.01,1.78-7.32,3.63-1.13.9-2.67,2.33-2.59,2.41.02.02.55-.24,1.18-.58,2.78-1.48,5.08-2.34,7.18-2.7,1.21-.21,3.23-.21,4.43,0,3.36.58,6.93,2.35,11.77,5.82.58.42,1.08.76,1.11.76.1,0,.03-.17-.35-.89-.46-.88-1.03-1.76-1.7-2.6-.59-.75-2.38-2.54-3.07-3.08-2.48-1.91-5.14-2.92-7.89-3.01h0Z"/>
    <path id="path20" class="st0" d="M27.27,8.48c-4.84-.04-9.46,2.62-13.77,7.94-.28.35-.5.65-.48.67.02.02.38-.33.8-.77,3.61-3.76,7.23-5.98,10.6-6.48.71-.11,2.41-.12,3.11-.03,2.44.33,4.95,1.62,7.42,3.79,1.48,1.31,2.86,2.81,5.34,5.85,2.59,3.17,3.66,4.24,4.58,4.57.37.13.8.11.93-.05.22-.28-.09-1.36-.74-2.66-1.86-3.67-5.71-7.84-9.41-10.18-.89-.56-2.5-1.36-3.46-1.71-1.66-.61-3.3-.92-4.91-.93h0Z"/>
    <path id="path19" class="st1" d="M14.26,5.08c-.16,0-1.5.71-2.21,1.18-.34.23-.9.63-1.23.89-.75.59-2.48,2.32-3.01,3.01-2.21,2.86-3.22,5.99-2.98,9.15.09,1.19.26,2.03.66,3.23.85,2.57,2.49,5.13,4.94,7.67.32.33.58.57.59.54.01-.03-.25-.57-.59-1.2-1.82-3.44-2.72-6.13-2.84-8.55-.02-.43-.02-1.16,0-1.61.18-3.63,2.04-7.72,6.05-13.29.47-.65.69-1.01.64-1.02,0,0,0,0,0,0h0Z"/>
    <path id="path18" class="st1" d="M25.84,13.59c-.22,0-.45,0-.69.03-2.05.18-3.98.82-5.48,1.82-1.35.91-2.49,2.16-3.17,3.51-1.26,2.49-1.19,5.45.19,7.58.43.66,1.57,1.78,2.24,2.2.61.37,1.46.74,2.25.95.94.26.94.26-.13-.8-1.35-1.34-1.98-2.18-2.59-3.43-.46-.95-.64-1.67-.64-2.65,0-.89.11-1.38.49-2.12.56-1.1,1.48-1.94,2.88-2.61,1.11-.53,2.15-.8,3.56-.93,1.31-.12,2.26.03,3.3.53.83.39,1.45.83,2.13,1.52,1.18,1.18,2.07,2.88,2.42,4.59.48,2.37.16,5.28-.88,7.94-.13.34-.24.65-.24.69,0,.04.23-.16.5-.45,2.65-2.78,3.43-7.11,2.01-11.28-.64-1.9-1.55-3.35-2.9-4.65-1.05-1.01-1.99-1.6-3.21-2.02-.81-.28-1.4-.4-2.05-.41Z"/>
    <path id="path17" class="st1" d="M15.98,15.55c-.1,0-.86.83-1.28,1.4-.49.65-1.04,1.72-1.32,2.56-.98,2.87-.69,6.37.75,9.31.96,1.96,2.5,3.63,4.22,4.58.63.35,1.78.75,2.49.88.61.11.81.11,1.64.03,1.43-.13,3.12-.6,4.27-1.18,1.82-.91,3.39-2.44,4.25-4.14,1.26-2.49,1.19-5.45-.19-7.58-.43-.66-1.57-1.78-2.24-2.2-.61-.37-1.46-.74-2.25-.95-.94-.26-.94-.26.13.8,1.35,1.34,1.98,2.18,2.59,3.43.46.95.64,1.67.64,2.65,0,.89-.11,1.38-.49,2.12-.56,1.1-1.48,1.94-2.88,2.61-1.11.53-2.15.8-3.56.93-1.31.12-2.26-.03-3.3-.53-.83-.39-1.45-.83-2.13-1.52-1.18-1.18-2.07-2.88-2.42-4.59-.48-2.38-.16-5.28.88-7.95.13-.34.23-.65.22-.68,0,0,0,0,0,0h0Z"/>
    <path id="path16" class="st0" d="M23.41,1.85c-.53,0-1.54.36-2.59.91-3.62,1.9-7.65,5.66-9.93,9.26-.56.89-1.36,2.5-1.71,3.46-2.45,6.65-.12,12.93,6.94,18.68.35.29.66.52.7.52.03,0-.31-.36-.77-.8-3.82-3.69-6-7.25-6.51-10.63-.11-.71-.12-2.35-.03-3.04.33-2.44,1.62-4.95,3.79-7.42,1.33-1.51,2.87-2.91,5.91-5.4,2.72-2.22,3.67-3.12,4.25-4.02.4-.62.47-1.39.13-1.48-.05-.01-.12-.02-.19-.02Z"/>
    <path id="path15" class="st0" d="M2.13,23.89c-.22,0-.39.06-.46.21-.16.36.2,1.53.86,2.79,1.02,1.94,2.6,4.05,4.49,5.99,2.13,2.18,4.17,3.74,6.37,4.86,1.9.97,3.83,1.56,5.61,1.73,4.4.42,8.52-1.28,12.49-5.15,1.13-1.1,3.06-3.31,2.97-3.4-.02-.02-.38.33-.8.77-3.61,3.76-7.23,5.98-10.6,6.48-.71.11-2.41.12-3.11.03-2.44-.33-4.95-1.62-7.42-3.79-1.48-1.31-2.86-2.81-5.34-5.85-2.23-2.73-3.17-3.73-4.08-4.31-.35-.22-.72-.34-1-.35h0Z"/>
    <path id="path14" class="st1" d="M36.47,17.18s0,0,0,.01c0,.04.27.58.61,1.21,1.82,3.43,2.72,6.13,2.84,8.55.13,2.5-.33,4.72-1.51,7.37-1.03,2.31-3.02,5.55-5.14,8.36-.13.17-.14.2-.04.2.17,0,1.53-.73,2.23-1.19.34-.23.9-.63,1.23-.89.75-.59,2.48-2.32,3.01-3.01,2.55-3.31,3.51-6.98,2.78-10.71-.45-2.33-1.78-5.01-3.63-7.32-.85-1.07-2.24-2.57-2.37-2.57,0,0,0,0,0,0h0Z"/>
    <path id="path13" class="st1" d="M4.88,33.41c-.09,0,0,.21.35.88.46.88,1.03,1.76,1.7,2.6.59.75,2.38,2.54,3.07,3.08,2.18,1.68,4.67,2.73,7,2.96.27.03.77.05,1.11.06,3.71.05,7.64-1.72,11.32-5.1.84-.78,1.19-1.13,1.14-1.17-.02-.02-.55.24-1.18.58-2.78,1.48-5.08,2.34-7.18,2.7-.77.13-1.99.19-3.02.14-3.63-.17-7.67-2-13.18-5.96-.55-.39-1.03-.73-1.08-.75-.02,0-.03,0-.04,0h0Z"/>
    <path id="path12" class="st0" d="M30.66,13.27s.3.34.7.72c3.73,3.52,6.08,7.33,6.59,10.7.11.71.12,2.35.03,3.04-.33,2.44-1.62,4.95-3.79,7.42-1.33,1.51-2.87,2.91-5.91,5.4-3.23,2.64-4.26,3.69-4.53,4.6-.1.36-.08.78.05.87.13.09.79,0,1.33-.17.28-.09.89-.36,1.36-.6,3.67-1.85,7.78-5.66,10.12-9.35.56-.89,1.36-2.5,1.71-3.46,2.27-6.16.43-12.03-5.46-17.4-.86-.79-2.14-1.83-2.19-1.79h0Z"/>
  </g>
</svg>